<svg xmlns="http://www.w3.org/2000/svg" width="1080" height="1920" viewBox="0 0 1080 1920">
  <rect width="1080" height="1920" fill="#121417"/>
  <text x="540" y="210" fill="#f5f7f2" font-family="Arial, sans-serif" font-size="64" text-anchor="middle">A game can move</text>
  <text x="540" y="285" fill="#7ee787" font-family="Arial, sans-serif" font-size="54" text-anchor="middle">in the first hour</text>
  <rect x="180" y="460" width="720" height="720" rx="28" fill="#191f24" stroke="#39515c" stroke-width="4"/>
  <g stroke="#26333a" stroke-width="2">
    <path d="M260 460v720M340 460v720M420 460v720M500 460v720M580 460v720M660 460v720M740 460v720M820 460v720"/>
    <path d="M180 540h720M180 620h720M180 700h720M180 780h720M180 860h720M180 940h720M180 1020h720M180 1100h720"/>
  </g>
  <circle cx="420" cy="860" r="42" fill="#7ee787"/>
  <circle cx="660" cy="700" r="24" fill="#58a6ff"/>
  <text x="240" y="535" fill="#f5f7f2" font-family="Arial, sans-serif" font-size="36">score 1</text>
  <path d="M390 860h-70" stroke="#7ee787" stroke-width="14" stroke-linecap="round"/>
</svg>
